<svg id="Icon-Orange" xmlns="http://www.w3.org/2000/svg" width="106.447" height="106.446" viewBox="0 0 106.447 106.446">
  <path id="Tracé_341" data-name="Tracé 341" d="M67.338,41.023,55.094,53.172H102.3V6.328Z" transform="translate(4.144 0.051)" fill="#e85739"/>
  <g id="Groupe_715" data-name="Groupe 715" transform="translate(0 0)">
    <g id="Groupe_713" data-name="Groupe 713" transform="translate(0 0)">
      <path id="Tracé_319" data-name="Tracé 319" d="M45.877,66.878C26.315,65.651,15.126,41.159,30.264,26.136L56.206.4H0v70.09a26.617,26.617,0,0,1,39.916,22.76,26.507,26.507,0,0,1-3.56,13.6h70.09V93.536H66.529A13.307,13.307,0,0,1,53.223,80.23h53.223V66.924s-60.013-.012-60.569-.046" transform="translate(0 -0.395)" fill="#e85739"/>
      <path id="Tracé_320" data-name="Tracé 320" d="M37.253,35.405a10.524,10.524,0,0,0-3.221,7.335A11.221,11.221,0,0,0,39.319,52.1L91.427.4H72.536Z" transform="translate(2.56 -0.395)" fill="#e85739"/>
      <path id="Tracé_321" data-name="Tracé 321" d="M13.306,74.645A13.307,13.307,0,0,0,0,87.951v13.306H13.306a13.306,13.306,0,1,0,0-26.612" transform="translate(0 5.19)" fill="#e85739"/>
    </g>
  </g>
</svg>
